<?xml version="1.0" encoding="UTF-8" standalone="no"?><!DOCTYPE svg PUBLIC "-//W3C//DTD SVG 1.1//EN" "http://www.w3.org/Graphics/SVG/1.1/DTD/svg11.dtd"><svg width="100%" height="100%" viewBox="0 0 2134 2134" version="1.1" xmlns="http://www.w3.org/2000/svg" xmlns:xlink="http://www.w3.org/1999/xlink" xml:space="preserve" xmlns:serif="http://www.serif.com/" style="fill-rule:evenodd;clip-rule:evenodd;stroke-linejoin:round;stroke-miterlimit:2;"><g><path d="M304.583,6.25c-95.416,20.833 -170,67.083 -228.75,142.5c-21.25,27.083 -49.166,83.333 -62.083,124.167l-11.667,37.5l0,1508.33l9.584,33.333c20,70.417 50,122.084 98.75,170.834c49.583,50 104.166,80.416 177.5,100l39.166,10l1495.83,-1.667l37.5,-11.667c133.333,-41.666 226.25,-137.5 261.25,-269.583l9.583,-35.417l0,-1504.17l-11.667,-36.667c-40.833,-130.417 -134.166,-222.917 -265.416,-262.083l-31.25,-9.584l-745.834,-0.833c-624.166,-0.417 -750,0.417 -772.5,5Z" style="fill-rule:nonzero;"/><path d="M2133.33,374.271c0,-206.566 -167.705,-374.271 -374.27,-374.271l-1384.79,0c-206.566,0 -374.271,167.705 -374.271,374.271l-0,1384.79c-0,206.565 167.705,374.27 374.271,374.27l1384.79,0c206.565,0 374.27,-167.705 374.27,-374.27l0,-1384.79Z" style="fill:#f0f0f0;"/><path d="M556.967,855.329c-0,-164.783 133.579,-298.362 298.362,-298.362l671.308,-0c164.784,-0 298.363,133.579 298.363,298.362l-0,671.308c-0,164.784 -133.579,298.363 -298.363,298.363l-671.308,-0c-164.783,-0 -298.362,-133.579 -298.362,-298.363l-0,-671.308Z" style="fill:#ccc;fill-rule:nonzero;"/><path d="M308.333,606.696c0,-164.783 133.579,-298.363 298.363,-298.363l671.308,0c164.784,0 298.363,133.58 298.363,298.363l-0,671.308c-0,164.784 -133.58,298.363 -298.363,298.363l-671.308,-0c-164.784,-0 -298.363,-133.579 -298.363,-298.363l0,-671.308Z" style="fill:#fff;fill-rule:nonzero;"/><path d="M432.65,731.013c-0,-164.784 133.579,-298.363 298.362,-298.363l671.309,0c164.783,0 298.362,133.579 298.362,298.363l0,671.308c0,164.783 -133.579,298.362 -298.362,298.362l-671.309,0c-164.783,0 -298.362,-133.579 -298.362,-298.362l0,-671.308Z" style="fill:#f0f0f0;fill-rule:nonzero;"/><path d="M637.775,786.954c-0,-82.391 66.787,-149.179 149.179,-149.179l559.425,0c82.392,0 149.179,66.788 149.179,149.179l0,559.425c0,82.392 -66.787,149.179 -149.179,149.179l-559.425,0c-82.391,0 -149.179,-66.787 -149.179,-149.179l0,-559.425Z" style="fill:#fff;fill-rule:nonzero;"/></g></svg>