<?xml version="1.0" encoding="UTF-8" standalone="no"?><!DOCTYPE svg PUBLIC "-//W3C//DTD SVG 1.1//EN" "http://www.w3.org/Graphics/SVG/1.1/DTD/svg11.dtd"><svg width="100%" height="100%" viewBox="0 0 172 172" version="1.1" xmlns="http://www.w3.org/2000/svg" xmlns:xlink="http://www.w3.org/1999/xlink" xml:space="preserve" xmlns:serif="http://www.serif.com/" style="fill-rule:evenodd;clip-rule:evenodd;stroke-linejoin:round;stroke-miterlimit:2;"><path id="DarkerShadow" d="M171.505,59.751c0,-20.559 -16.692,-37.251 -37.251,-37.251l-74.503,0c-20.559,0 -37.251,16.692 -37.251,37.251l0,74.503c0,20.559 16.692,37.251 37.251,37.251l74.503,0c20.559,0 37.251,-16.692 37.251,-37.251l0,-74.503Z" style="fill:#12ac19;"/><path id="Main" d="M149.005,37.251c0,-20.559 -16.692,-37.251 -37.251,-37.251l-74.503,0c-20.559,0 -37.251,16.692 -37.251,37.251l0,74.503c0,20.559 16.692,37.251 37.251,37.251l74.503,0c20.559,0 37.251,-16.692 37.251,-37.251l0,-74.503Z" style="fill:#adf7b1;"/><path id="LighterShadow" d="M160.24,48.474c0,-20.56 -16.692,-37.251 -37.251,-37.251l-74.502,0c-20.56,0 -37.252,16.691 -37.252,37.251l0,74.502c0,20.56 16.692,37.251 37.252,37.251l74.502,0c20.559,0 37.251,-16.691 37.251,-37.251l0,-74.502Z" style="fill:#3beb45;"/></svg>